<svg width="63" height="56" viewBox="0 0 63 56" fill="none" xmlns="http://www.w3.org/2000/svg">
<rect width="42" height="56" fill="#FBB731"/>
<path fill-rule="evenodd" clip-rule="evenodd" d="M40.5 7H43.5C54.2644 7.01239 62.9876 15.7356 63 26.5C63 27.3284 62.3284 28 61.5 28H22.5C21.6716 28 21 27.3284 21 26.5C21.0124 15.7356 29.7356 7.01239 40.5 7ZM40.4999 9.99996C31.9723 10.0102 24.8533 16.5086 24.0675 25H59.9324C59.1467 16.5085 52.0277 10.0102 43.5 9.99996H40.4999Z" fill="white"/>
<path fill-rule="evenodd" clip-rule="evenodd" d="M55.5 37.1084H61.5001C62.3285 37.1084 63.0001 37.7739 63 38.5949V41.5677C62.9951 45.6704 59.6401 48.9951 55.5 49H28.5C24.3599 48.9951 21.0049 45.6704 21 41.5677V38.5949C21 37.7739 21.6716 37.1084 22.5 37.1084H43.4999C43.8245 37.1084 44.1403 37.2127 44.3999 37.4057L49.5 41.1961L54.6 37.4057C54.8596 37.2127 55.1754 37.1084 55.5 37.1084ZM55.5 46.0271C57.9853 46.0271 60 44.0306 60 41.5677V40.0813H55.9995L50.4 44.2434C49.8667 44.6397 49.1333 44.6397 48.6 44.2434L43.0005 40.0813H24V41.5677C24 44.0306 26.0147 46.0271 28.5 46.0271H55.5Z" fill="white"/>
<path d="M61.5 31.0361H22.5C21.6716 31.0361 21 31.7158 21 32.5542C21 33.3925 21.6716 34.0723 22.5 34.0723H61.5C62.3284 34.0723 63 33.3926 63 32.5542C63 31.7157 62.3284 31.0361 61.5 31.0361Z" fill="white"/>
<path d="M34.4096 15.8555C33.5712 15.8555 32.8915 16.5351 32.8915 17.3735V18.8916C32.8915 19.73 33.5712 20.4097 34.4096 20.4097C35.248 20.4097 35.9277 19.73 35.9277 18.8916V17.3735C35.9277 16.5351 35.248 15.8555 34.4096 15.8555Z" fill="white"/>
<path d="M42 15.8555C41.1616 15.8555 40.4819 16.5351 40.4819 17.3735V18.8916C40.4819 19.73 41.1616 20.4097 42 20.4097C42.8384 20.4097 43.5181 19.7299 43.5181 18.8915V17.3735C43.5181 16.5351 42.8384 15.8555 42 15.8555Z" fill="white"/>
<path d="M49.5903 15.8555C48.7519 15.8555 48.0723 16.5351 48.0723 17.3735V18.8916C48.0723 19.73 48.7519 20.4097 49.5903 20.4097C50.4288 20.4097 51.1084 19.73 51.1084 18.8916V17.3735C51.1083 16.5351 50.4287 15.8555 49.5903 15.8555Z" fill="white"/>
</svg>
